<svg width="128" height="128" viewBox="0 0 128 128" fill="none" xmlns="http://www.w3.org/2000/svg">
<g clip-path="url(#clip0_13_102)">
<path d="M42.6667 0H64C72.4046 0 80.7269 1.6554 88.4917 4.8717C96.2566 8.088 103.312 12.8022 109.255 18.7452C115.198 24.6881 119.912 31.7434 123.128 39.5083C126.345 47.2731 128 55.5954 128 64C128 72.4046 126.345 80.7269 123.128 88.4917C119.912 96.2566 115.198 103.312 109.255 109.255C103.312 115.198 96.2566 119.912 88.4917 123.128C80.7269 126.345 72.4046 128 64 128H0V0L24.8889 24.8889V99.5556H64C68.6692 99.5556 73.2927 98.6359 77.6065 96.8491C81.9203 95.0622 85.8399 92.4432 89.1416 89.1416C92.4432 85.8399 95.0622 81.9203 96.8491 77.6065C98.6359 73.2927 99.5556 68.6692 99.5556 64C99.5556 59.3308 98.6359 54.7073 96.849 50.3935C95.0622 46.0797 92.4432 42.1601 89.1416 38.8584C85.8399 35.5568 81.9203 32.9378 77.6065 31.1509C73.2927 29.3641 68.6692 28.4444 64 28.4444L64 78.2222L42.6667 58.6667V0Z" fill="black"/>
</g>
<defs>
<clipPath id="clip0_13_102">
<rect width="128" height="128" fill="white"/>
</clipPath>
</defs>
</svg>
