<svg width="256" height="256" viewBox="0 0 256 256" fill="none" xmlns="http://www.w3.org/2000/svg">
<g clip-path="url(#clip0_107_78)">
<mask id="mask0_107_78" style="mask-type:alpha" maskUnits="userSpaceOnUse" x="72" y="0" width="184" height="208">
<path fill-rule="evenodd" clip-rule="evenodd" d="M96 4C96 1.79086 94.2091 0 92 0H76C73.7909 0 72 1.79086 72 4V184C72 197.255 82.7452 208 96 208H252C254.209 208 256 206.209 256 204V188C256 185.791 254.209 184 252 184H96V4Z" fill="white"/>
</mask>
<g mask="url(#mask0_107_78)">
<circle cx="128" cy="128" r="128" fill="black"/>
</g>
<path fill-rule="evenodd" clip-rule="evenodd" d="M60 19.5365C23.9574 42.1807 0 82.2926 0 128C0 198.692 57.3076 256 128 256C162.582 256 193.961 242.286 216.995 220H176.542C162.051 227.662 145.532 232 128 232C70.5624 232 24 185.438 24 128C24 96.5602 37.9509 68.3787 60 49.3085V19.5365ZM108 25.9213V1.55334C114.517 0.530831 121.196 0 128 0C198.692 0 256 57.3076 256 128C256 143.46 253.259 158.28 248.237 172H222.261C228.51 158.637 232 143.726 232 128C232 70.5624 185.438 24 128 24C121.159 24 114.472 24.6605 108 25.9213Z" fill="black"/>
</g>
<defs>
<clipPath id="clip0_107_78">
<rect width="256" height="256" fill="black"/>
</clipPath>
</defs>
</svg>
