<svg width="128" height="128" viewBox="0 0 128 128" fill="none" xmlns="http://www.w3.org/2000/svg">
<path d="M52 16H68C74.3035 16 80.5452 17.2416 86.3688 19.6538C92.1924 22.066 97.4839 25.6017 101.941 30.0589C106.398 34.5161 109.934 39.8076 112.346 45.6312C114.758 51.4548 116 57.6965 116 64C116 70.3034 114.758 76.5452 112.346 82.3688C109.934 88.1924 106.398 93.4839 101.941 97.9411C97.4839 102.398 92.1924 105.934 86.3688 108.346C80.5452 110.758 74.3034 112 68 112H20V16L38.6667 34.6667V90.6667H68C71.5019 90.6667 74.9695 89.9769 78.2049 88.6368C81.4402 87.2967 84.38 85.3324 86.8562 82.8562C89.3324 80.38 91.2967 77.4402 92.6368 74.2049C93.9769 70.9695 94.6667 67.5019 94.6667 64C94.6667 60.4981 93.9769 57.0305 92.6368 53.7951C91.2967 50.5598 89.3324 47.62 86.8562 45.1438C84.38 42.6676 81.4402 40.7033 78.2049 39.3632C74.9695 38.0231 71.5019 37.3333 68 37.3333L68 74.6667L52 60V16Z" fill="#EFEFFA"/>
</svg>
