<svg width="1296" height="652" viewBox="0 0 1296 652" fill="none" xmlns="http://www.w3.org/2000/svg">
<g clip-path="url(#clip0_15_104)">
<path d="M444.667 440H460C466.041 440 472.022 441.19 477.603 443.502C483.184 445.813 488.255 449.202 492.527 453.473C496.798 457.745 500.187 462.816 502.498 468.397C504.81 473.978 506 479.959 506 486C506 492.041 504.81 498.022 502.498 503.603C500.187 509.184 496.798 514.255 492.527 518.527C488.255 522.798 483.184 526.187 477.603 528.498C472.022 530.81 466.041 532 460 532H414V440L431.889 457.889V511.556H460C463.356 511.556 466.679 510.895 469.78 509.61C472.88 508.326 475.697 506.444 478.071 504.071C480.444 501.697 482.326 498.88 483.61 495.78C484.895 492.679 485.556 489.356 485.556 486C485.556 482.644 484.895 479.321 483.61 476.22C482.326 473.12 480.444 470.303 478.071 467.929C475.697 465.556 472.88 463.674 469.78 462.39C466.679 461.105 463.356 460.444 460 460.444L460 496.222L444.667 482.167V440Z" fill="white"/>
</g>
<path d="M532.056 521.778V452.134H544.108V521.778H532.056ZM573.084 522.882C569.22 522.882 565.847 522.023 562.964 520.306C560.143 518.588 557.965 516.196 556.432 513.13C554.96 510.063 554.224 506.475 554.224 502.366V471.73H566.276V501.354C566.276 503.439 566.675 505.279 567.472 506.874C568.331 508.407 569.527 509.634 571.06 510.554C572.655 511.412 574.433 511.842 576.396 511.842C578.359 511.842 580.107 511.412 581.64 510.554C583.173 509.634 584.369 508.376 585.228 506.782C586.087 505.187 586.516 503.286 586.516 501.078V471.73H598.568V521.778H587.16V511.934L588.172 513.682C587.007 516.748 585.075 519.048 582.376 520.582C579.739 522.115 576.641 522.882 573.084 522.882ZM609.771 521.778V452.134H621.823V497.766L617.223 496.386L640.775 471.73H655.771L637.279 491.878L656.139 521.778H642.339L625.963 495.834L633.139 494.362L618.051 510.554L621.823 503.194V521.778H609.771ZM678.049 522.882C674.553 522.882 671.517 522.299 668.941 521.134C666.365 519.968 664.372 518.312 662.961 516.166C661.55 513.958 660.845 511.412 660.845 508.53C660.845 505.77 661.458 503.316 662.685 501.17C663.912 498.962 665.813 497.122 668.389 495.65C670.965 494.178 674.216 493.135 678.141 492.522L694.517 489.854V499.054L680.441 501.446C678.049 501.875 676.27 502.642 675.105 503.746C673.94 504.85 673.357 506.291 673.357 508.07C673.357 509.787 674.001 511.167 675.289 512.21C676.638 513.191 678.294 513.682 680.257 513.682C682.772 513.682 684.98 513.16 686.881 512.118C688.844 511.014 690.346 509.511 691.389 507.61C692.493 505.708 693.045 503.623 693.045 501.354V488.474C693.045 486.327 692.186 484.548 690.469 483.138C688.813 481.666 686.605 480.93 683.845 480.93C681.269 480.93 678.969 481.635 676.945 483.046C674.982 484.395 673.541 486.204 672.621 488.474L662.777 483.69C663.758 481.052 665.292 478.783 667.377 476.882C669.524 474.919 672.038 473.386 674.921 472.282C677.804 471.178 680.932 470.626 684.305 470.626C688.414 470.626 692.033 471.392 695.161 472.926C698.289 474.398 700.712 476.483 702.429 479.182C704.208 481.819 705.097 484.916 705.097 488.474V521.778H693.689V513.222L696.265 513.038C694.977 515.184 693.444 516.994 691.665 518.466C689.886 519.876 687.862 520.98 685.593 521.778C683.324 522.514 680.809 522.882 678.049 522.882ZM739.512 522.882C734.667 522.882 730.343 521.747 726.54 519.478C722.737 517.147 719.732 513.988 717.524 510.002C715.316 506.015 714.212 501.599 714.212 496.754C714.212 491.847 715.316 487.431 717.524 483.506C719.732 479.58 722.737 476.452 726.54 474.122C730.404 471.791 734.697 470.626 739.42 470.626C743.223 470.626 746.596 471.392 749.54 472.926C752.545 474.398 754.907 476.483 756.624 479.182L754.784 481.666V452.134H766.836V521.778H755.428V512.118L756.716 514.51C754.999 517.208 752.607 519.294 749.54 520.766C746.473 522.176 743.131 522.882 739.512 522.882ZM740.8 511.842C743.56 511.842 745.983 511.198 748.068 509.91C750.153 508.622 751.779 506.843 752.944 504.574C754.171 502.304 754.784 499.698 754.784 496.754C754.784 493.871 754.171 491.295 752.944 489.026C751.779 486.695 750.153 484.886 748.068 483.598C745.983 482.31 743.56 481.666 740.8 481.666C738.101 481.666 735.679 482.34 733.532 483.69C731.385 484.978 729.699 486.756 728.472 489.026C727.307 491.234 726.724 493.81 726.724 496.754C726.724 499.698 727.307 502.304 728.472 504.574C729.699 506.843 731.385 508.622 733.532 509.91C735.679 511.198 738.101 511.842 740.8 511.842ZM801.785 522.882C796.633 522.882 792.125 521.716 788.261 519.386C784.397 517.055 781.391 513.896 779.245 509.91C777.098 505.923 776.025 501.507 776.025 496.662C776.025 491.632 777.098 487.186 779.245 483.322C781.453 479.396 784.427 476.299 788.169 474.03C791.971 471.76 796.203 470.626 800.865 470.626C804.79 470.626 808.225 471.27 811.169 472.558C814.174 473.846 816.719 475.624 818.805 477.894C820.89 480.163 822.485 482.77 823.589 485.714C824.693 488.596 825.245 491.724 825.245 495.098C825.245 495.956 825.183 496.846 825.061 497.766C824.999 498.686 824.846 499.483 824.601 500.158H785.961V490.958H817.793L812.089 495.282C812.641 492.46 812.487 489.946 811.629 487.738C810.831 485.53 809.482 483.782 807.581 482.494C805.741 481.206 803.502 480.562 800.865 480.562C798.35 480.562 796.111 481.206 794.149 482.494C792.186 483.72 790.683 485.56 789.641 488.014C788.659 490.406 788.291 493.319 788.537 496.754C788.291 499.82 788.69 502.55 789.733 504.942C790.837 507.272 792.431 509.082 794.517 510.37C796.663 511.658 799.117 512.302 801.877 512.302C804.637 512.302 806.967 511.719 808.869 510.554C810.831 509.388 812.365 507.824 813.469 505.862L823.221 510.646C822.239 513.038 820.706 515.154 818.621 516.994C816.535 518.834 814.051 520.275 811.169 521.318C808.347 522.36 805.219 522.882 801.785 522.882ZM848.57 521.778L828.882 471.73H842.038L856.298 511.106H851.422L865.774 471.73H878.93L859.242 521.778H848.57Z" fill="white"/>
<g clip-path="url(#clip1_15_104)">
<mask id="mask0_15_104" style="mask-type:alpha" maskUnits="userSpaceOnUse" x="420" y="120" width="71" height="80">
<path fill-rule="evenodd" clip-rule="evenodd" d="M429.695 121.531C429.695 120.686 429.01 120 428.164 120H422.039C421.193 120 420.508 120.686 420.508 121.531V190.438C420.508 195.512 424.621 199.625 429.695 199.625H489.414C490.26 199.625 490.945 198.939 490.945 198.094V191.969C490.945 191.123 490.26 190.438 489.414 190.438H429.695V121.531Z" fill="white"/>
</mask>
<g mask="url(#mask0_15_104)">
<circle cx="441.945" cy="169" r="49" fill="white"/>
</g>
<path fill-rule="evenodd" clip-rule="evenodd" d="M429.695 121.544C429.695 121.544 429.695 121.544 429.695 121.544V131.108C429.695 131.108 429.695 131.108 429.695 131.108V121.544ZM415.914 127.479C402.116 136.147 392.945 151.503 392.945 169C392.945 196.062 414.883 218 441.945 218C455.184 218 467.196 212.75 476.014 204.219H460.528C454.981 207.152 448.657 208.812 441.945 208.812C419.957 208.812 402.133 190.988 402.133 169C402.133 156.964 407.473 146.176 415.914 138.876V127.479ZM478.03 185.844H487.974C489.896 180.591 490.945 174.918 490.945 169C490.945 141.938 469.007 120 441.945 120C439.341 120 436.784 120.203 434.289 120.595V129.923C436.767 129.44 439.326 129.188 441.945 129.188C463.933 129.188 481.758 147.012 481.758 169C481.758 175.02 480.422 180.728 478.03 185.844Z" fill="white"/>
</g>
<path d="M533.82 199.106V138.562H542.469V191.581H575.25V199.106H533.82Z" fill="white"/>
<path d="M603.425 199.625C599.504 199.625 596.045 198.904 593.046 197.463C590.106 196.021 587.799 193.83 586.127 190.889C584.513 187.891 583.705 184.143 583.705 179.646V153.266H592.009V178.694C592.009 183.192 593.075 186.565 595.209 188.814C597.4 191.062 600.456 192.187 604.377 192.187C607.26 192.187 609.768 191.61 611.902 190.457C614.035 189.246 615.678 187.516 616.831 185.267C617.985 182.961 618.561 180.193 618.561 176.964V153.266H626.864V199.106H618.994V186.738L620.291 190.024C618.792 193.081 616.543 195.445 613.545 197.117C610.546 198.789 607.173 199.625 603.425 199.625Z" fill="white"/>
<path d="M644.824 188.035L644.997 177.397L671.377 153.266H681.41L661.171 173.159L656.673 176.964L644.824 188.035ZM638.078 199.106V134.93H646.381V199.106H638.078ZM673.107 199.106L655.116 176.791L660.479 170.132L683.312 199.106H673.107Z" fill="white"/>
<path d="M721.282 199.106V189.419L720.85 187.603V171.083C720.85 167.566 719.812 164.856 717.736 162.953C715.718 160.992 712.662 160.012 708.568 160.012C705.858 160.012 703.206 160.473 700.611 161.396C698.016 162.261 695.825 163.443 694.037 164.942L690.578 158.715C692.942 156.812 695.767 155.37 699.054 154.39C702.398 153.352 705.887 152.833 709.519 152.833C715.804 152.833 720.648 154.361 724.05 157.417C727.452 160.473 729.153 165.144 729.153 171.429V199.106H721.282ZM706.233 199.625C702.831 199.625 699.832 199.048 697.238 197.895C694.701 196.742 692.74 195.156 691.356 193.138C689.972 191.062 689.28 188.727 689.28 186.132C689.28 183.653 689.857 181.404 691.01 179.386C692.221 177.368 694.153 175.753 696.805 174.543C699.515 173.332 703.148 172.726 707.703 172.726H722.234V178.694H708.049C703.897 178.694 701.101 179.386 699.659 180.77C698.218 182.154 697.497 183.826 697.497 185.786C697.497 188.035 698.391 189.852 700.178 191.235C701.966 192.562 704.445 193.225 707.617 193.225C710.73 193.225 713.44 192.533 715.747 191.149C718.111 189.765 719.812 187.747 720.85 185.095L722.493 190.803C721.397 193.513 719.466 195.675 716.698 197.29C713.93 198.847 710.442 199.625 706.233 199.625Z" fill="white"/>
<path d="M740.753 199.106V138.562H766.268C772.726 138.562 778.405 139.831 783.306 142.368C788.265 144.905 792.1 148.451 794.81 153.006C797.577 157.562 798.961 162.837 798.961 168.834C798.961 174.831 797.577 180.107 794.81 184.662C792.1 189.217 788.265 192.763 783.306 195.3C778.405 197.838 772.726 199.106 766.268 199.106H740.753ZM749.402 191.581H765.749C770.765 191.581 775.09 190.63 778.722 188.727C782.413 186.824 785.267 184.172 787.285 180.77C789.303 177.31 790.312 173.332 790.312 168.834C790.312 164.279 789.303 160.3 787.285 156.898C785.267 153.496 782.413 150.844 778.722 148.941C775.09 147.038 770.765 146.087 765.749 146.087H749.402V191.581Z" fill="white"/>
<path d="M831.028 199.625C826.126 199.625 821.802 198.616 818.054 196.598C814.364 194.58 811.481 191.812 809.405 188.295C807.387 184.777 806.378 180.741 806.378 176.186C806.378 171.631 807.358 167.594 809.318 164.077C811.336 160.56 814.075 157.821 817.535 155.861C821.052 153.842 825.002 152.833 829.384 152.833C833.824 152.833 837.745 153.814 841.147 155.774C844.549 157.734 847.201 160.502 849.104 164.077C851.065 167.594 852.045 171.717 852.045 176.445C852.045 176.791 852.016 177.195 851.958 177.656C851.958 178.118 851.93 178.55 851.872 178.954H812.864V172.986H847.547L844.174 175.062C844.232 172.121 843.626 169.497 842.358 167.191C841.089 164.884 839.331 163.097 837.082 161.828C834.891 160.502 832.325 159.839 829.384 159.839C826.501 159.839 823.935 160.502 821.686 161.828C819.438 163.097 817.679 164.913 816.411 167.277C815.142 169.584 814.508 172.236 814.508 175.235V176.618C814.508 179.674 815.2 182.413 816.584 184.835C818.025 187.199 820.014 189.044 822.551 190.37C825.088 191.697 828 192.36 831.287 192.36C833.997 192.36 836.448 191.898 838.639 190.976C840.887 190.053 842.848 188.669 844.52 186.824L849.104 192.187C847.028 194.609 844.434 196.454 841.32 197.722C838.264 198.991 834.833 199.625 831.028 199.625Z" fill="white"/>
<path d="M874.752 199.106L854.686 153.266H863.335L881.152 194.782H877.001L895.164 153.266H903.294L883.228 199.106H874.752Z" fill="white"/>
<path d="M660 294V359M660 359L635.5 335.5M660 359L683.5 335.5" stroke="#696969" stroke-width="4" stroke-linecap="round" stroke-linejoin="round"/>
<defs>
<clipPath id="clip0_15_104">
<rect width="92" height="92" fill="white" transform="translate(414 440)"/>
</clipPath>
<clipPath id="clip1_15_104">
<rect width="98" height="98" fill="white" transform="translate(392.945 120)"/>
</clipPath>
</defs>
</svg>
